<svg xmlns="http://www.w3.org/2000/svg" width="1600" height="400" viewBox="0 0 1600 400" fill="none" font-family="Inter,-apple-system,Segoe UI,Helvetica,Arial,sans-serif" role="img" aria-label="Uniformity">
  <defs>
    <linearGradient id="rule" x1="0" y1="0" x2="1600" y2="0" gradientUnits="userSpaceOnUse">
      <stop offset="0" stop-color="#0ea5e9" stop-opacity="0"/><stop offset="0.5" stop-color="#0ea5e9"/><stop offset="1" stop-color="#6366f1" stop-opacity="0"/>
    </linearGradient>
    <radialGradient id="halo" cx="0" cy="0" r="1" gradientTransform="translate(1240 190) scale(300)" gradientUnits="userSpaceOnUse">
      <stop offset="0" stop-color="#0ea5e9" stop-opacity="0.10"/><stop offset="1" stop-color="#0ea5e9" stop-opacity="0"/>
    </radialGradient>
  </defs>
  <rect width="1600" height="400" fill="#ffffff"/>
  <circle cx="1240" cy="190" r="300" fill="url(#halo)"/>
  <g stroke="#0a0a0b" stroke-width="1" opacity="0.08">
    <line x1="1240" y1="0" x2="1240" y2="400"/><line x1="1040" y1="190" x2="1440" y2="190"/>
  </g>
  <!-- object mark -->
  <g>
    <polygon points="1240,60 1402,153 1402,340 1240,433 1078,340 1078,153" stroke="#e7e7ea" stroke-width="1.2" fill="none"/>
    <polygon points="1240,100 1360,169 1360,323 1240,392 1120,323 1120,169" stroke="#c4c4c8" stroke-width="1.2" fill="none"/>
    <polygon points="1240,140 1318,185 1318,307 1240,352 1162,307 1162,185" stroke="#a1a1aa" stroke-width="1.2" fill="none"/>
    <polygon points="1240,190 1288,218 1288,274 1240,302 1192,274 1192,218" stroke="#0a0a0b" stroke-width="1.6" fill="none"/>
    <circle cx="1240" cy="246" r="12" fill="#0ea5e9" opacity="0.15"/>
    <circle cx="1240" cy="246" r="5" fill="#0ea5e9"/>
  </g>
  <text x="100" y="152" font-size="15" font-weight="600" letter-spacing="5" fill="#a1a1aa">UNIFORMITY</text>
  <text x="98" y="216" font-size="52" font-weight="600" letter-spacing="-1.6" fill="#0a0a0b">The OS composes.</text>
  <text x="98" y="272" font-size="52" font-weight="600" letter-spacing="-1.6" fill="#a1a1aa">The domains remain real.</text>
  <rect x="100" y="302" width="420" height="3" rx="1.5" fill="url(#rule)"/>
  <text x="100" y="340" font-size="17" fill="#71717a">Identity · canonical object state · evidence · action · verification · history</text>
</svg>